<svg xmlns="http://www.w3.org/2000/svg" version="1.1" xmlnsXlink="http://www.w3.org/1999/xlink"
    xmlnsSvgjs="http://svgjs.dev/svgjs" width="1000" height="1000" viewBox="0 0 1000 1000">
    <rect width="1000" height="1000" fill="#f7fafc" fill-opacity="0"></rect>
    <g transform="matrix(0.7,0,0,0.7,149.57575757575756,282.1265587044535)"><svg viewBox="0 0 396 247"
            data-background-color="#f7fafc" preserveAspectRatio="xMidYMid meet" height="623" width="1000"
            xmlns="http://www.w3.org/2000/svg" xmlnsXlink="http://www.w3.org/1999/xlink">
            <defs></defs>
            <g id="tight-bounds" transform="matrix(1,0,0,1,0.2400000000000091,-0.09999999999999432)"><svg
                    viewBox="0 0 395.52 247.2" height="247.2" width="395.52">
                    <g><svg></svg></g>
                    <g><svg viewBox="0 0 395.52 247.2" height="247.2" width="395.52">
                            <g>
                                <path
                                    d="M55.039 247.2l26.403-45.732 5.975 0-23.253 40.274h267.192l-23.253-40.274 5.975 0 26.403 45.732zM197.76 0l26.403 45.732-5.974 0-20.429-35.384-20.429 35.384-5.974 0z"
                                    fill="#212529" data-fill-palette-color="tertiary"></path>
                            </g>
                            <g transform="matrix(1,0,0,1,5.799940198019783,67.98)"><svg
                                    viewBox="0 0 383.9201196039604 111.23999999999998" height="111.23999999999998"
                                    width="383.9201196039604">
                                    <g><svg viewBox="0 0 383.9201196039604 111.23999999999998"
                                            height="111.23999999999998" width="383.9201196039604">
                                            <g><svg viewBox="0 0 383.9201196039604 111.23999999999998"
                                                    height="111.23999999999998" width="383.9201196039604">
                                                    <g><svg viewBox="0 0 383.9201196039604 111.23999999999998"
                                                            height="111.23999999999998" width="383.9201196039604">
                                                            <g><svg viewBox="0 0 383.9201196039604 111.23999999999998"
                                                                    height="111.23999999999998"
                                                                    width="383.9201196039604">
                                                                    <path
                                                                        d="M383.021 23.859C381.216 12.312 376.072 9.102 376.072 9.102 360.28-2.791 340.57-0.228 322.864 1.481 291.604 1.551 260.469 4.091 229.281 5.453 163.817 5.661 97.794 2.243 32.656 10.673 26.537 13.259-6.348 11.181 1.088 25.337 3.038 31.226 10.149 37.761 9.932 43.165 10.907 44.112 12.261 41.941 12.838 43.303 14.86 46.975 18.163 45.243 20.87 47.414 17.098 53.21 19.805 58.037 22.386 63.094 17.838 64.411 12.008 63.787 9.391 68.152 9.12 71.316 7.658 70.715 6.052 70.577 4.879 70.484 2.514 70.831 2.911 71.824 4.265 75.218-1.547 77.181 2.099 80.507-0.41 84.109 3.832 87.227 3.254 91.13 3.182 91.915 3.579 92.585 4.211 92.769 7.008 93.762 2.929 95.702 3.362 97.804 32.06 112.168 63.195 102.238 92.596 108.842 100.231 104.224 94.491 110.482 97.542 109.512 99.924 108.38 101.657 113.068 104.346 110.413 104.761 109.651 104.13 107.849 105.61 108.196 106.386 108.38 107.072 108.334 107.18 107.272 107.342 105.679 105.916 106.672 105.537 105.84 109.634 101.637 108.624 111.637 112.468 111.221 112.288 109.997 111.169 108.242 113.461 108.473 115.735 106.718 115.807 105.263 117.829 109.212 117.901 110.066 118.262 110.667 118.839 111.082 125.157 106.787 131.438 112.607 138.061 110.667 142.123 108.542 146.021 111.821 150.136 111.013 151.58 110.367 153.042 109.212 154.432 111.152 171.452 111.567 189.591 109.835 205.727 111.221 248.846 108.635 294.925 112.283 340.39 108.865 351.111 107.549 362.247 105.679 372.697 104.178 372.697 104.178 381.162 100.067 381.162 81.592S382.967 65.427 383.238 50.716C383.509 36.006 384.772 35.406 382.967 23.859Z"
                                                                        opacity="1" fill="#2b2b2b"
                                                                        data-fill-palette-color="tertiary"></path>
                                                                    <g
                                                                        transform="matrix(1,0,0,1,55.76832,11.803799999999999)">
                                                                        <svg width="272.3834796039604"
                                                                            viewBox="4.320000171661377 -36.11000061035156 114.95999908447266 36.9900016784668"
                                                                            height="87.63239999999999"
                                                                            data-palette-color="#f7fafc">
                                                                            <path
                                                                                d="M20.48-10.13L20.48-10.13 22.66-10.03Q27.39-10.03 30.47-13.16L30.47-13.16Q33.59-16.31 33.74-21.31L33.74-21.31Q34.01-29.03 26.32-31.74L26.32-31.74Q23.44-32.76 18.82-32.76L18.82-32.76 16.77-32.76 16.77 0 4.32 0 4.32-34.55 13.67-34.55Q21.24-34.55 22.8-34.33 24.37-34.11 26.06-33.76 27.76-33.42 29.72-32.28 31.69-31.13 33.06-29.54L33.06-29.54Q35.82-26.32 35.72-21.97L35.72-21.97Q35.57-16.43 32.47-12.74L32.47-12.74Q29.32-9.03 23.78-8.15L23.78-8.15Q22.17-7.93 21.24-7.93L21.24-7.93Q19.04-7.93 19.04-9.13L19.04-9.13Q19.04-9.57 19.43-9.85 19.82-10.13 20.48-10.13ZM38.23 0.37Q37.77 0.32 37.52-0.05 37.28-0.42 37.33-0.85L37.33-0.85Q37.45-1.61 37.79-2.25 38.13-2.88 38.29-3.2 38.45-3.52 38.62-3.91L38.62-3.91 39.55-6.05 49.58-36.11 60.37-15.26 70.85-36.11 83.37 0 70.26 0 64.21-18.65 54.83 0.88 44.97-16.7 41.55-6.03Q40.74-4.25 40.4-3 40.06-1.76 39.84-1.07L39.84-1.07Q39.35 0.46 38.23 0.37L38.23 0.37ZM104.76-11.84L104.76-11.84 106.76-11.69Q111.05-11.69 114.06-14.7L114.06-14.7Q117.06-17.7 117.06-22.17L117.06-22.17Q117.06-28.03 111.91-30.86L111.91-30.86Q109.08-32.42 105.85-32.67L105.85-32.67Q104.49-32.79 103.32-32.79L103.32-32.79 101.66-32.79Q101.14-32.79 100.75-32.76L100.75-32.76 100.75 0 88.3 0 88.3-34.55Q94.01-34.55 97.55-34.55 101.09-34.55 102.17-34.52 103.24-34.5 104.08-34.46 104.93-34.42 105.66-34.38L105.66-34.38Q106.73-34.28 108.7-33.91 110.66-33.54 112.59-32.52 114.52-31.49 115.91-29.98L115.91-29.98Q118.92-26.76 118.92-22.31L118.92-22.31Q118.92-17.92 116.13-14.55L116.13-14.55Q113.28-11.11 108.52-10.11L108.52-10.11Q110.79-3.08 114.3-1.71L114.3-1.71Q115.38-1.29 116.45-1.29L116.45-1.29 118.38-1.76Q119.28-1.76 119.28-0.83L119.28-0.83Q119.28 0.46 116.25 0.46L116.25 0.46Q114.06 0.46 112.23-0.76L112.23-0.76Q109.37-2.47 107.37-7.4L107.37-7.4 106.66-9.13Q106.49-9.55 106.35-9.64 106.22-9.74 105.89-9.74 105.56-9.74 105.32-9.69L105.32-9.69 104.73-9.67Q103.75-9.67 103.4-10.03 103.05-10.4 103.05-10.79L103.05-10.79Q103.05-11.84 104.76-11.84Z"
                                                                                opacity="1"
                                                                                transform="matrix(1,0,0,1,0,0)"
                                                                                fill="#f7fafc" class="undefined-text-0"
                                                                                data-fill-palette-color="quaternary"
                                                                                id="text-0"></path>
                                                                        </svg></g>
                                                                </svg></g>
                                                        </svg></g>
                                                </svg></g>
                                            <g></g>
                                        </svg></g>
                                </svg></g>
                        </svg></g>
                </svg>
                <rect width="395.52" height="247.2" fill="none" stroke="none" visibility="hidden"></rect>
            </g>
        </svg></g>
</svg>